<?xml version="1.0" encoding="utf-8"?>
<!-- Generator: Adobe Illustrator 19.2.1, SVG Export Plug-In . SVG Version: 6.00 Build 0)  -->
<svg version="1.1" id="Layer_1" xmlns="http://www.w3.org/2000/svg" xmlns:xlink="http://www.w3.org/1999/xlink" x="0px" y="0px"
	 viewBox="0 0 24 24" style="enable-background:new 0 0 24 24;" xml:space="preserve">
<style type="text/css">
	.st0{fill:#FFFFFF;}
</style>
<path class="st0" d="M15.5,4C14.2,4,13,4.6,12,5.5C11,4.6,9.8,4,8.5,4C5.4,4,3,6.7,3,10c0,2.9,1.7,5.3,4.4,7.4
	c0.9,0.7,1.9,1.3,2.9,1.8c0.6,0.3,1.1,0.5,1.3,0.6l0.4,0.2l0.4-0.2c0.3-0.1,0.7-0.3,1.3-0.6c1-0.5,2-1.1,2.9-1.8
	c2.7-2.1,4.4-4.6,4.4-7.4C21,6.7,18.6,4,15.5,4z M15.4,15.9c-0.8,0.6-1.7,1.2-2.6,1.7c-0.3,0.2-0.5,0.3-0.8,0.4
	c-0.2-0.1-0.5-0.2-0.8-0.4c-0.9-0.5-1.8-1-2.6-1.7C6.3,14.1,5,12.1,5,10c0-2.2,1.6-4,3.5-4c1,0,2,0.6,2.7,1.6L12,8.7l0.8-1.1
	c0.7-1,1.7-1.6,2.7-1.6c1.9,0,3.5,1.8,3.5,4C19,12.1,17.7,14.1,15.4,15.9z"/>
</svg>
